<mxfile host="embed.diagrams.net" modified="2025-07-04T18:15:12.345Z" agent="GitHub Copilot" etag="Ua9bCdeFgHiJkLmNoPqR" version="24.6.4" type="embed">
  <diagram name="Page-1" id="aBcDeFg-12345">
    <mxGraphModel dx="1434" dy="746" grid="1" gridSize="10" guides="1" tooltips="1" connect="1" arrows="1" fold="1" page="1" pageScale="1" pageWidth="1100" pageHeight="850" math="0" shadow="0">
      <root>
        <mxCell id="0" />
        <mxCell id="1" parent="0" />
        <mxCell id="AbstractExpression" value="&lt;i&gt;AbstractExpression&lt;/i&gt;" style="swimlane;fontStyle=0;align=center;verticalAlign=top;childLayout=stackLayout;horizontal=1;startSize=30;horizontalStack=0;resizeParent=1;resizeParentMax=0;resizeLast=0;collapsible=0;marginBottom=0;html=1;" parent="1" vertex="1">
          <mxGeometry x="350" y="40" width="320" height="150" as="geometry" />
        </mxCell>
        <mxCell id="AbstractExpression_Fields" value="- children_ : vector&amp;lt;AbstractExpressionRef&amp;gt;&lt;br&gt;- ret_type_ : Column" style="text;strokeColor=none;fillColor=none;align=left;verticalAlign=top;spacingLeft=4;spacingRight=4;overflow=hidden;rotatable=0;points=[[0,0.5],[1,0.5]];portConstraint=eastwest;html=1;" parent="AbstractExpression" vertex="1">
          <mxGeometry y="30" width="320" height="40" as="geometry" />
        </mxCell>
        <mxCell id="AbstractExpression_Methods" value="&lt;i&gt;+ Evaluate(tuple, schema) : Value&lt;/i&gt;&lt;br&gt;&lt;i&gt;+ EvaluateJoin(...) : Value&lt;/i&gt;&lt;br&gt;&lt;i&gt;+ CloneWithChildren(children) : unique_ptr&amp;lt;AbstractExpression&amp;gt;&lt;/i&gt;&lt;br&gt;+ GetChildAt(idx) : const AbstractExpressionRef&amp;amp;" style="text;strokeColor=none;fillColor=none;align=left;verticalAlign=top;spacingLeft=4;spacingRight=4;overflow=hidden;rotatable=0;points=[[0,0.5],[1,0.5]];portConstraint=eastwest;html=1;" parent="AbstractExpression" vertex="1">
          <mxGeometry y="70" width="320" height="80" as="geometry" />
        </mxCell>
        <mxCell id="ComparisonExpression" value="ComparisonExpression" style="swimlane;fontStyle=0;align=center;verticalAlign=top;childLayout=stackLayout;horizontal=1;startSize=30;horizontalStack=0;resizeParent=1;resizeParentMax=0;resizeLast=0;collapsible=0;marginBottom=0;html=1;" parent="1" vertex="1">
          <mxGeometry x="40" y="300" width="220" height="90" as="geometry" />
        </mxCell>
        <mxCell id="ComparisonExpression_Fields" value="- comparison_type_ : ComparisonType" style="text;strokeColor=none;fillColor=none;align=left;verticalAlign=top;spacingLeft=4;spacingRight=4;overflow=hidden;rotatable=0;points=[[0,0.5],[1,0.5]];portConstraint=eastwest;html=1;" parent="ComparisonExpression" vertex="1">
          <mxGeometry y="30" width="220" height="30" as="geometry" />
        </mxCell>
        <mxCell id="ComparisonExpression_Methods" value="+ Evaluate(tuple, schema) : Value&lt;br&gt;+ CloneWithChildren(...)" style="text;strokeColor=none;fillColor=none;align=left;verticalAlign=top;spacingLeft=4;spacingRight=4;overflow=hidden;rotatable=0;points=[[0,0.5],[1,0.5]];portConstraint=eastwest;html=1;" parent="ComparisonExpression" vertex="1">
          <mxGeometry y="60" width="220" height="30" as="geometry" />
        </mxCell>
        <mxCell id="LogicExpression" value="LogicExpression" style="swimlane;fontStyle=0;align=center;verticalAlign=top;childLayout=stackLayout;horizontal=1;startSize=30;horizontalStack=0;resizeParent=1;resizeParentMax=0;resizeLast=0;collapsible=0;marginBottom=0;html=1;" parent="1" vertex="1">
          <mxGeometry x="280" y="300" width="220" height="90" as="geometry" />
        </mxCell>
        <mxCell id="LogicExpression_Fields" value="- logic_type_ : LogicType" style="text;strokeColor=none;fillColor=none;align=left;verticalAlign=top;spacingLeft=4;spacingRight=4;overflow=hidden;rotatable=0;points=[[0,0.5],[1,0.5]];portConstraint=eastwest;html=1;" parent="LogicExpression" vertex="1">
          <mxGeometry y="30" width="220" height="30" as="geometry" />
        </mxCell>
        <mxCell id="LogicExpression_Methods" value="+ Evaluate(tuple, schema) : Value&lt;br&gt;+ CloneWithChildren(...)" style="text;strokeColor=none;fillColor=none;align=left;verticalAlign=top;spacingLeft=4;spacingRight=4;overflow=hidden;rotatable=0;points=[[0,0.5],[1,0.5]];portConstraint=eastwest;html=1;" parent="LogicExpression" vertex="1">
          <mxGeometry y="60" width="220" height="30" as="geometry" />
        </mxCell>
        <mxCell id="ColumnValueExpression" value="ColumnValueExpression" style="swimlane;fontStyle=0;align=center;verticalAlign=top;childLayout=stackLayout;horizontal=1;startSize=30;horizontalStack=0;resizeParent=1;resizeParentMax=0;resizeLast=0;collapsible=0;marginBottom=0;html=1;" parent="1" vertex="1">
          <mxGeometry x="520" y="300" width="220" height="90" as="geometry" />
        </mxCell>
        <mxCell id="ColumnValueExpression_Fields" value="- col_idx_ : uint32_t" style="text;strokeColor=none;fillColor=none;align=left;verticalAlign=top;spacingLeft=4;spacingRight=4;overflow=hidden;rotatable=0;points=[[0,0.5],[1,0.5]];portConstraint=eastwest;html=1;" parent="ColumnValueExpression" vertex="1">
          <mxGeometry y="30" width="220" height="30" as="geometry" />
        </mxCell>
        <mxCell id="ColumnValueExpression_Methods" value="+ Evaluate(tuple, schema) : Value&lt;br&gt;+ CloneWithChildren(...)" style="text;strokeColor=none;fillColor=none;align=left;verticalAlign=top;spacingLeft=4;spacingRight=4;overflow=hidden;rotatable=0;points=[[0,0.5],[1,0.5]];portConstraint=eastwest;html=1;" parent="ColumnValueExpression" vertex="1">
          <mxGeometry y="60" width="220" height="30" as="geometry" />
        </mxCell>
        <mxCell id="ConstantValueExpression" value="ConstantValueExpression" style="swimlane;fontStyle=0;align=center;verticalAlign=top;childLayout=stackLayout;horizontal=1;startSize=30;horizontalStack=0;resizeParent=1;resizeParentMax=0;resizeLast=0;collapsible=0;marginBottom=0;html=1;" parent="1" vertex="1">
          <mxGeometry x="760" y="300" width="220" height="90" as="geometry" />
        </mxCell>
        <mxCell id="ConstantValueExpression_Fields" value="- val_ : Value" style="text;strokeColor=none;fillColor=none;align=left;verticalAlign=top;spacingLeft=4;spacingRight=4;overflow=hidden;rotatable=0;points=[[0,0.5],[1,0.5]];portConstraint=eastwest;html=1;" parent="ConstantValueExpression" vertex="1">
          <mxGeometry y="30" width="220" height="30" as="geometry" />
        </mxCell>
        <mxCell id="ConstantValueExpression_Methods" value="+ Evaluate(tuple, schema) : Value&lt;br&gt;+ CloneWithChildren(...)" style="text;strokeColor=none;fillColor=none;align=left;verticalAlign=top;spacingLeft=4;spacingRight=4;overflow=hidden;rotatable=0;points=[[0,0.5],[1,0.5]];portConstraint=eastwest;html=1;" parent="ConstantValueExpression" vertex="1">
          <mxGeometry y="60" width="220" height="30" as="geometry" />
        </mxCell>
        <mxCell id="Inheritance_Comparison" style="edgeStyle=orthogonalEdgeStyle;rounded=0;orthogonalLoop=1;jettySize=auto;html=1;exitX=0.5;exitY=0;exitDx=0;exitDy=0;entryX=0.25;entryY=1;entryDx=0;entryDy=0;endArrow=block;endFill=0;" edge="1" parent="1" source="ComparisonExpression" target="AbstractExpression">
          <mxGeometry relative="1" as="geometry" />
        </mxCell>
        <mxCell id="Inheritance_Logic" style="edgeStyle=orthogonalEdgeStyle;rounded=0;orthogonalLoop=1;jettySize=auto;html=1;exitX=0.5;exitY=0;exitDx=0;exitDy=0;entryX=0.5;entryY=1;entryDx=0;entryDy=0;endArrow=block;endFill=0;" edge="1" parent="1" source="LogicExpression" target="AbstractExpression">
          <mxGeometry relative="1" as="geometry" />
        </mxCell>
        <mxCell id="Inheritance_ColumnValue" style="edgeStyle=orthogonalEdgeStyle;rounded=0;orthogonalLoop=1;jettySize=auto;html=1;exitX=0.5;exitY=0;exitDx=0;exitDy=0;entryX=0.75;entryY=1;entryDx=0;entryDy=0;endArrow=block;endFill=0;" edge="1" parent="1" source="ColumnValueExpression" target="AbstractExpression">
          <mxGeometry relative="1" as="geometry" />
        </mxCell>
        <mxCell id="Inheritance_ConstantValue" style="edgeStyle=orthogonalEdgeStyle;rounded=0;orthogonalLoop=1;jettySize=auto;html=1;exitX=0.5;exitY=0;exitDx=0;exitDy=0;entryX=0.9;entryY=1;entryDx=0;entryDy=0;endArrow=block;endFill=0;" edge="1" parent="1" source="ConstantValueExpression" target="AbstractExpression">
          <mxGeometry relative="1" as="geometry">
            <mxPoint x="870" y="250" as="sourcePoint" />
            <mxPoint x="625" y="190" as="targetPoint" />
          </mxGeometry>
        </mxCell>
        <mxCell id="Aggregation_Children" value="children_ 0..*" style="edgeStyle=orthogonalEdgeStyle;rounded=0;orthogonalLoop=1;jettySize=auto;html=1;exitX=1;exitY=0.33;exitDx=0;exitDy=0;endArrow=diamondThin;endFill=0;endSize=14;startFill=0;" edge="1" parent="1" source="AbstractExpression" target="AbstractExpression">
          <mxGeometry width="100" height="100" relative="1" as="geometry">
            <mxPoint x="680" y="100" as="sourcePoint" />
            <mxPoint x="780" y="100" as="targetPoint" />
            <Array as="points">
              <mxPoint x="720" y="90" />
              <mxPoint x="720" y="140" />
            </Array>
          </mxGeometry>
        </mxCell>
        <mxCell id="Value" value="Value" style="rounded=0;whiteSpace=wrap;html=1;" vertex="1" parent="1">
          <mxGeometry x="780" y="40" width="120" height="60" as="geometry" />
        </mxCell>
        <mxCell id="Column" value="Column" style="rounded=0;whiteSpace=wrap;html=1;" vertex="1" parent="1">
          <mxGeometry x="780" y="130" width="120" height="60" as="geometry" />
        </mxCell>
        <mxCell id="Dependency_Value" style="edgeStyle=orthogonalEdgeStyle;rounded=0;orthogonalLoop=1;jettySize=auto;html=1;exitX=1;exitY=0.5;exitDx=0;exitDy=0;entryX=0;entryY=0.5;entryDx=0;entryDy=0;dashed=1;endArrow=open;" edge="1" parent="1" source="AbstractExpression" target="Value">
          <mxGeometry relative="1" as="geometry" />
        </mxCell>
        <mxCell id="Dependency_Column" style="edgeStyle=orthogonalEdgeStyle;rounded=0;orthogonalLoop=1;jettySize=auto;html=1;exitX=1;exitY=0.75;exitDx=0;exitDy=0;entryX=0;entryY=0.5;entryDx=0;entryDy=0;dashed=1;endArrow=open;" edge="1" parent="1" source="AbstractExpression" target="Column">
          <mxGeometry relative="1" as="geometry" />
        </mxCell>
      </root>
    </mxGraphModel>
  </diagram>
</mxfile>